<svg xmlns="http://www.w3.org/2000/svg" xmlns:xlink="http://www.w3.org/1999/xlink" width="110" height="110" viewBox="0 0 110 110">
    <defs>
        <circle id="a" cx="55" cy="55" r="55"/>
    </defs>
    <g fill="none" fill-rule="evenodd">
        <mask id="b" fill="#fff">
            <use xlink:href="#a"/>
        </mask>
        <g fill-rule="nonzero" mask="url(#b)">
            <path fill="#FFF1C7" d="M-9.02-7.05h124.815v94.38H-9.02z"/>
            <path fill="#000" d="M115.795 87.575H-9.02c-.14 0-.25-.11-.25-.25v-94.38c0-.14.11-.25.25-.25h124.815c.14 0 .25.11.25.25v94.38c0 .14-.11.25-.25.25zm-124.565-.5h124.315v-93.88H-8.77v93.88z"/>
            <path fill="#37A8FF" d="M4.41 96.61h109.4v14.965H4.41z"/>
            <path fill="#000" d="M113.74 96.68l-13.905.29-13.785.245-13.69.185c-4.555.06-9.11.135-13.64.16-4.535.035-9.07.08-13.585.075-4.525.015-9.04 0-13.56-.025-9.04-.045-18.09-.085-27.16-.21l.785-.785c-.045 4.99-.16 9.975-.24 14.965l-.545-.545 13.675.19c4.56.045 9.115.06 13.675.045 9.115-.005 18.235-.24 27.35-.395 9.115-.205 18.235-.225 27.35-.16 9.115.045 18.235.15 27.35.345l-.52.52c.04-2.43.135-4.875.215-7.355l.23-7.545zm.14-.145l.235 7.425c.075 2.51.17 5.05.215 7.61a.51.51 0 0 1-.505.52h-.015c-9.115.195-18.235.3-27.35.345-9.115.065-18.235.045-27.35-.16-9.115-.155-18.235-.39-27.35-.395-4.56-.015-9.115 0-13.675.045l-13.675.19a.534.534 0 0 1-.545-.53v-.015c-.075-4.99-.195-9.975-.24-14.965a.774.774 0 0 1 .77-.785h.015c9.165-.125 18.35-.16 27.54-.21 4.6-.03 9.2-.045 13.79-.025 4.6-.005 9.18.04 13.765.075 4.585.025 9.15.1 13.71.16l13.66.185 13.565.245 13.44.285z"/>
            <path fill="#37A8FF" d="M113.81 66.91s-30.195-2.65-41.225 0c-15.03-4.365-37.705 0-37.705 0-9.66-2.65-30.47 0-30.47 0v17.43h109.4V66.91z"/>
            <path fill="#000" d="M113.735 66.975c-.015.015-.015.025-.02.025l-.075-.005-.16-.01-.325-.015-.645-.03-1.29-.06-2.58-.115c-1.72-.075-3.44-.135-5.16-.185-3.44-.085-6.88-.195-10.315-.2-3.435-.02-6.87.05-10.29.205-3.405.17-6.855.415-10.08 1.185-.15.035-.3.03-.44-.005l-.015-.005c-2.98-.81-6.07-1.265-9.18-1.505-3.11-.255-6.245-.3-9.375-.215a136.309 136.309 0 0 0-18.705 1.885l-.02.005c-.155.025-.31.015-.45-.02-2.33-.64-4.845-.905-7.345-1.075-2.51-.15-5.04-.175-7.57-.125-2.53.05-5.065.175-7.6.345-2.53.165-5.07.375-7.58.65l.71-.805c-.035 2.905-.06 5.81-.115 8.715l-.15 8.715-.545-.545 13.675.19c4.56.045 9.115.06 13.675.05 9.115 0 18.235-.225 27.35-.38 9.115-.2 18.235-.255 27.35-.185 9.115.03 18.235.14 27.35.31l-.565.565c.05-2.84.13-5.695.225-8.585l.26-8.775zm.15-.135l.265 8.655c.095 2.92.175 5.875.225 8.845a.557.557 0 0 1-.545.565h-.02c-9.115.17-18.235.28-27.35.31-9.115.065-18.235.01-27.35-.185-9.115-.155-18.235-.38-27.35-.38-4.56-.01-9.115.005-13.675.05l-13.675.19a.534.534 0 0 1-.545-.53v-.015l-.15-8.715c-.055-2.905-.08-5.81-.115-8.715-.005-.41.3-.75.695-.805h.015c2.555-.34 5.095-.605 7.65-.83 2.555-.215 5.115-.365 7.685-.45 2.57-.08 5.145-.09 7.73.03 2.585.145 5.185.37 7.785 1.045l-.475-.02c3.17-.605 6.315-1.005 9.495-1.34 3.175-.33 6.36-.54 9.56-.595 3.195-.055 6.4.025 9.6.32 3.195.32 6.385.86 9.5 1.78l-.455-.01c1.755-.39 3.495-.59 5.235-.735a91.118 91.118 0 0 1 5.205-.26c3.465-.085 6.92.015 10.37.15 3.45.15 6.895.335 10.33.62 1.72.14 3.435.29 5.155.45l2.575.255 1.285.14.64.075.32.035.16.02.085.01c.045.005.1.02.14.04z"/>
            <path fill="#37A8FF" d="M113.81 81.875c-.445-1.915-23.885-3.875-31.62 2.32l-16.395-2.32s-14.63-3.76-30.43-.635l-30.96.635V96.84h109.4l.005-14.965z"/>
            <path fill="#000" d="M113.71 81.885c-.025-.085-.165-.21-.3-.28-.14-.08-.29-.15-.45-.21a8.64 8.64 0 0 0-.965-.295 20.654 20.654 0 0 0-1.995-.385 42.34 42.34 0 0 0-4.055-.41c-2.715-.145-5.44-.15-8.145.055-2.705.2-5.4.555-8.02 1.185-1.305.315-2.59.71-3.815 1.22-1.22.51-2.39 1.14-3.355 1.955a.628.628 0 0 1-.475.145l-.035-.005c-2.74-.315-5.485-.63-8.225-.97-2.74-.325-5.475-.69-8.215-1.04l-.055-.01-.05-.01a70.956 70.956 0 0 0-7.425-1.23 80.996 80.996 0 0 0-15.095-.315c-2.51.19-5 .525-7.465 1h-.01c-.055.01-.115.015-.17.02l-15.48.205c-5.16.08-10.32.12-15.485.155l.77-.785c-.045 4.99-.16 9.975-.24 14.965L4.41 96.3l13.675.19c4.56.045 9.115.06 13.675.045 9.115-.005 18.235-.24 27.35-.395A817.6 817.6 0 0 1 86.46 96l6.84.115 6.84.165 13.675.32-.25.25c.065-2.49.075-4.98.115-7.475l.03-7.49zm.2-.025l.035 7.485c.04 2.495.05 4.99.115 7.49a.241.241 0 0 1-.235.25h-.01l-13.675.32-6.84.165-6.84.115c-9.115.1-18.235.055-27.35-.145-9.115-.155-18.235-.39-27.35-.395-4.56-.015-9.115 0-13.675.045l-13.675.19a.534.534 0 0 1-.545-.53v-.015c-.075-4.99-.195-9.975-.24-14.965a.776.776 0 0 1 .75-.785h.02c5.16-.18 10.315-.35 15.475-.485l15.475-.43-.185.02c2.55-.495 5.13-.85 7.715-1.045 2.585-.2 5.18-.265 7.765-.185 2.585.08 5.17.275 7.735.595 2.575.33 5.105.725 7.67 1.37l-.105-.02c2.725.42 5.455.83 8.18 1.28 2.725.43 5.45.89 8.17 1.35l-.51.14c1.17-.885 2.47-1.49 3.785-1.965 1.32-.475 2.67-.81 4.025-1.075 2.715-.525 5.455-.755 8.19-.835 2.735-.06 5.475-.015 8.195.21 1.36.12 2.72.25 4.07.47.675.11 1.35.24 2.015.41.33.085.665.185.985.31.16.065.32.135.475.225.145.105.315.185.39.435z"/>
            <path fill="#000" d="M113.74 96.45l-13.905.29-13.785.245-13.69.185c-4.555.06-9.11.135-13.64.16-4.535.035-9.07.08-13.585.075-4.525.015-9.04 0-13.56-.025-9.04-.045-18.09-.085-27.16-.21l.785-.785c-.045 4.99-.16 9.975-.24 14.965l-.545-.545 13.675.19c4.56.045 9.115.06 13.675.045 9.115-.005 18.235-.24 27.35-.395 9.115-.205 18.235-.225 27.35-.16 9.115.045 18.235.15 27.35.345l-.52.52c.04-2.43.135-4.875.215-7.355l.23-7.545zm.14-.145l.235 7.425c.075 2.51.17 5.05.215 7.61a.51.51 0 0 1-.505.52h-.015c-9.115.195-18.235.3-27.35.345-9.115.065-18.235.045-27.35-.16-9.115-.155-18.235-.39-27.35-.395-4.56-.015-9.115 0-13.675.045l-13.675.19a.534.534 0 0 1-.545-.53v-.015c-.075-4.99-.195-9.975-.24-14.965a.774.774 0 0 1 .77-.785h.015c9.165-.125 18.35-.16 27.54-.21 4.6-.03 9.2-.045 13.79-.025 4.6-.005 9.18.04 13.765.075 4.585.025 9.15.1 13.71.16l13.66.185 13.565.245 13.44.285z"/>
            <path fill="#FF9942" d="M88.75 63.93s-17.985-3.52-31.195-1.385c0 0 .225 7.295-2.595 9.685-2.815 2.39-6.59 8.3-8.475 13.46 0 0 25.285 3.9 33.46 2.515 0 0 4.025-6.04 4.655-11.445.63-5.405 4.15-12.83 4.15-12.83z"/>
            <path fill="#000" d="M88.53 63.765l-.24-.06-.475-.12c-.32-.08-.635-.155-.955-.225l-1.925-.41a92.451 92.451 0 0 0-3.87-.725c-2.59-.43-5.2-.765-7.82-1a94.644 94.644 0 0 0-7.91-.35c-2.645.06-5.305.195-7.95.61l-.91.145.015.945c.015 1.01-.035 2.1-.15 3.135-.115 1.04-.27 2.075-.55 3.045-.275.965-.675 1.885-1.245 2.5l-.21.23-.325.305c-.225.2-.42.41-.625.62-.4.42-.775.855-1.13 1.3-1.425 1.77-2.615 3.67-3.675 5.635a39.728 39.728 0 0 0-2.645 6.145l-.23.7.69.075 4.19.46c1.395.14 2.79.285 4.185.445l4.185.46 4.18.49c2.79.32 5.575.675 8.385.93l2.115.165 2.125.085c.71.035 1.43-.02 2.145-.025.715-.015 1.455-.12 2.185-.195l.365-.04.225-.345c1.235-1.885 2.23-3.835 3.08-5.9a22.98 22.98 0 0 0 1.065-3.175c.15-.54.255-1.1.365-1.65.08-.56.16-1.15.21-1.645.11-1.035.315-2.08.56-3.115.235-1.04.515-2.075.825-3.105.305-1.03.63-2.06.975-3.08.17-.515.345-1.025.525-1.535l.27-.765.14-.38.07-.19.035-.095c.02-.045.04-.13.035-.18-.075-.045-.22-.1-.305-.115zm.03.3l-.1.18-.195.36-.38.72c-.245.485-.49.975-.725 1.465-.46.985-.91 1.98-1.31 3-.805 2.035-1.51 4.115-1.9 6.33l-.275 1.565c-.12.505-.235 1.005-.4 1.505-.305.995-.68 1.98-1.095 2.945-.785 1.805-1.745 3.58-2.77 5.245-.2.025-.405.045-.605.075-.33.045-.66.1-1.005.115-.685.04-1.36.1-2.055.12l-2.075.06-2.09.015c-2.79-.02-5.59-.105-8.38-.325-1.395-.105-2.79-.25-4.18-.395-1.39-.165-2.78-.33-4.165-.535l-2.08-.305-2.07-.345c-1.13-.195-2.265-.39-3.39-.6.77-1.76 1.685-3.46 2.67-5.105 1.12-1.835 2.335-3.63 3.705-5.24.34-.405.695-.79 1.06-1.155.185-.18.365-.365.555-.525l.285-.25.365-.36c.945-.985 1.43-2.145 1.79-3.265.6-1.955.82-3.89.865-5.87a69.19 69.19 0 0 1 6.77-.6c2.58-.1 5.17-.085 7.765-.02 2.595.09 5.19.235 7.79.43 1.3.105 2.6.21 3.9.33l1.95.195.975.105.485.055.245.025c.05.01.08 0 .115-.01l-.045.065z"/>
            <path fill="#FFE69C" d="M79.37 124.22h-3.365L65.8 96.375h3.36z"/>
            <path fill="#000" d="M79.45 124.28c-.5.06-1.04.135-1.62.215-.58.08-1.2.145-1.825.2a.418.418 0 0 1-.41-.235l-.035-.075c-1.055-2.245-1.995-4.53-2.915-6.83-.91-2.3-1.76-4.62-2.435-7.005-.68-2.385-1.325-4.78-2.15-7.11a93.74 93.74 0 0 0-2.78-6.88.52.52 0 0 1 .435-.73l.075-.005 3.365-.215c.3-.02.57.155.68.415l.035.085c1 2.325 1.91 4.705 2.84 7.095.925 2.395 1.805 4.82 2.58 7.22.785 2.405 1.505 4.78 2.21 7.105.69 2.325 1.36 4.6 1.95 6.75zm-.16-.115l-3.16-7.18c-1-2.315-1.98-4.58-2.895-6.815a117.271 117.271 0 0 1-2.52-6.7c-.775-2.25-1.565-4.51-2.265-6.825l.715.5-3.365-.215.515-.735c.69 2.38 1.455 4.73 2.325 7.045.88 2.31 1.935 4.555 2.955 6.815 1.03 2.255 1.88 4.575 2.67 6.92.785 2.345 1.54 4.7 2.19 7.095l-.445-.31c.495.055.995.12 1.54.2.535.065 1.115.145 1.74.205z"/>
            <path fill="#FFE69C" d="M30.555 124.22h3.365l10.205-27.845h-3.36z"/>
            <path fill="#000" d="M30.64 124.165c.62-.06 1.2-.135 1.74-.215.54-.08 1.04-.145 1.54-.2l-.445.31c.645-2.395 1.405-4.75 2.19-7.095.79-2.34 1.64-4.66 2.67-6.92 1.02-2.26 2.075-4.505 2.955-6.815a95.936 95.936 0 0 0 2.325-7.045l.515.735-3.365.215.715-.5c-.705 2.315-1.49 4.575-2.265 6.825-.775 2.25-1.6 4.465-2.52 6.7-.915 2.235-1.895 4.5-2.895 6.815l-3.16 7.19zm-.165.115c.595-2.15 1.26-4.425 1.945-6.74.7-2.325 1.425-4.7 2.21-7.105.78-2.405 1.655-4.83 2.58-7.22.925-2.39 1.84-4.775 2.84-7.095l.035-.085a.701.701 0 0 1 .68-.42l3.365.215.075.005a.52.52 0 0 1 .44.73 95.08 95.08 0 0 0-2.78 6.88c-.825 2.33-1.47 4.725-2.15 7.11-.675 2.385-1.525 4.705-2.435 7.005-.92 2.295-1.86 4.58-2.915 6.83l-.035.075a.411.411 0 0 1-.41.235 37.756 37.756 0 0 1-1.825-.2c-.58-.085-1.12-.165-1.62-.22z"/>
            <path fill="#FFE69C" d="M92.06 90.995c0 2.97-16.61 5.38-37.095 5.38s-37.095-2.41-37.095-5.38v-2.41S36.4 85.61 54.965 85.61c17.925 0 37.095 2.975 37.095 2.975v2.41z"/>
            <path fill="#000" d="M92.16 90.995c-.01.48-.355.835-.675 1.085a5.61 5.61 0 0 1-1.08.635c-.755.355-1.545.6-2.33.855-1.58.485-3.19.83-4.805 1.175-3.23.655-6.495 1.17-9.77 1.57-6.55.81-13.155 1.055-19.745.86-6.59-.205-13.155-.755-19.7-1.42-3.27-.355-6.545-.73-9.79-1.355-1.625-.32-3.25-.655-4.84-1.315-.395-.17-.795-.36-1.18-.635a2.77 2.77 0 0 1-.56-.51 1.58 1.58 0 0 1-.365-.85l-.035-2.5a.571.571 0 0 1 .47-.57l.02-.005a204.411 204.411 0 0 1 18.51-2.51c3.1-.295 6.21-.525 9.32-.705l2.335-.12 2.34-.07c1.56-.055 3.12-.055 4.68-.065 3.125.055 6.245.12 9.355.335 3.11.205 6.215.485 9.3.885 6.18.765 12.32 1.755 18.46 2.7.06.01.1.06.1.12l-.015 2.41zm-.2 0l-.02-2.41.1.12c-6.145-.87-12.35-1.26-18.54-1.535-6.19-.25-12.37-.52-18.54-.495-3.085.025-6.17.08-9.26.21-3.09.11-6.175.275-9.26.505-3.085.225-6.17.49-9.25.79-3.08.295-6.17.6-9.23.98l.49-.575-.025 2.425c-.02.12.16.39.44.6.27.22.61.405.96.575 1.42.67 3.01 1.1 4.59 1.48 3.185.715 6.44 1.16 9.7 1.465 3.26.32 6.54.45 9.82.495 3.28.045 6.555.025 9.83-.055 6.55-.14 13.085-.295 19.625-.56 3.27-.155 6.54-.355 9.785-.795a41.366 41.366 0 0 0 4.82-.915 14.82 14.82 0 0 0 2.31-.795c.37-.165.73-.355 1.045-.595.31-.235.6-.545.61-.915z"/>
            <g transform="translate(17 82)">
                <ellipse cx="37.965" cy="6.59" fill="#FFE69C" rx="37.095" ry="5.38"/>
                <path fill="#000" d="M75.16 6.585c-.005.47-.335.81-.645 1.06-.325.255-.68.455-1.04.625-.73.35-1.49.6-2.255.84-1.53.48-3.09.82-4.655 1.16-3.13.645-6.29 1.16-9.465 1.555-6.345.825-12.75 1.09-19.135.975a226.132 226.132 0 0 1-14.345-.835c-1.59-.135-3.18-.28-4.765-.435-3.175-.31-6.345-.665-9.505-1.17-1.58-.26-3.155-.555-4.72-.96-.785-.21-1.56-.45-2.33-.785a5.952 5.952 0 0 1-1.14-.645c-.185-.145-.37-.3-.53-.525-.16-.22-.3-.52-.305-.86a1.55 1.55 0 0 1 .28-.88c.155-.23.335-.4.52-.555a6.386 6.386 0 0 1 1.125-.71c.76-.38 1.535-.66 2.315-.91 1.555-.5 3.13-.86 4.71-1.17 3.16-.62 6.345-1.015 9.53-1.325 6.375-.62 12.77-.92 19.16-.895 6.39.05 12.79.325 19.14 1.175 3.175.405 6.335.925 9.465 1.57 1.56.34 3.125.68 4.655 1.165.76.245 1.525.495 2.255.845.365.175.72.375 1.04.63.305.25.635.595.64 1.06zm-.2 0c-.005-.355-.285-.66-.58-.89a5.168 5.168 0 0 0-1.01-.585 14.96 14.96 0 0 0-2.235-.78c-1.53-.4-3.09-.7-4.665-.91-3.145-.445-6.315-.64-9.485-.795-3.17-.14-6.34-.205-9.51-.28-3.17-.055-6.34-.11-9.51-.075-3.17 0-6.34.07-9.51.155-3.17.09-6.335.24-9.49.48-3.155.245-6.305.565-9.42 1.035-1.555.24-3.105.52-4.605.9-.75.195-1.49.42-2.17.715-.34.145-.66.315-.925.505-.27.19-.43.415-.425.52-.025.11.125.36.385.57.26.215.575.405.91.57.675.335 1.41.605 2.155.84 1.495.48 3.04.825 4.595 1.115 3.115.585 6.28.94 9.445 1.19 1.585.12 3.17.2 4.76.265 1.59.05 3.175.075 4.765.09 3.175.03 6.355-.015 9.525-.095 6.345-.125 12.685-.29 19.025-.56 3.17-.165 6.34-.365 9.485-.81a38.647 38.647 0 0 0 4.665-.915c.765-.205 1.515-.46 2.23-.785a5.3 5.3 0 0 0 1.005-.59c.305-.215.585-.52.59-.88z"/>
            </g>
            <g>
                <path fill="#37A8FF" d="M83.615 96.84v14.5"/>
                <path fill="#000" d="M83.715 96.84c.38.605.56 1.21.68 1.815.055.3.095.605.11.905.025.3.01.605-.055.905-.13.605-.45 1.21-.51 1.815-.07.605.035 1.21.225 1.815.2.605.345 1.21.4 1.815.075.605.155 1.21.125 1.815-.085 1.21-.325 2.415-.97 3.625h-.2c-.64-1.21-.88-2.415-.97-3.625-.035-.605.045-1.21.125-1.815.055-.605.2-1.21.4-1.815.19-.605.295-1.21.225-1.815-.06-.605-.38-1.21-.51-1.815-.065-.3-.08-.605-.055-.905.015-.3.055-.605.11-.905.12-.605.3-1.21.68-1.815h.19z"/>
            </g>
            <g>
                <path fill="#37A8FF" d="M25.22 96.84v14.5"/>
                <path fill="#000" d="M25.32 96.84c.38.605.56 1.21.68 1.815.055.3.095.605.11.905.025.3.01.605-.055.905-.13.605-.45 1.21-.51 1.815-.07.605.035 1.21.225 1.815.2.605.345 1.21.4 1.815.075.605.155 1.21.125 1.815-.085 1.21-.325 2.415-.97 3.625h-.2c-.64-1.21-.88-2.415-.97-3.625-.035-.605.045-1.21.125-1.815.055-.605.2-1.21.4-1.815.19-.605.295-1.21.225-1.815-.06-.605-.38-1.21-.51-1.815-.065-.3-.08-.605-.055-.905.015-.3.055-.605.11-.905.12-.605.3-1.21.68-1.815h.19z"/>
            </g>
            <g>
                <path fill="#37A8FF" d="M34.88 66.91s-1.61 7.415.49 14.33"/>
                <path fill="#000" d="M34.975 66.93a39.402 39.402 0 0 0-.08 3.6c.025 1.195.095 2.38.205 3.555.105 1.18.47 2.315.485 3.475.02 1.175.08 2.335-.125 3.645l-.19.06c-.42-.505-.79-1.05-1.035-1.63a9.049 9.049 0 0 1-.365-.88c-.095-.3-.18-.6-.26-.905a7.29 7.29 0 0 1-.2-1.86c.025-.625.06-1.25.095-1.865a28.02 28.02 0 0 1 .4-3.67c.235-1.205.485-2.4.88-3.565l.19.04z"/>
            </g>
            <g>
                <path fill="#FF9942" d="M27.24 65.31S6.99 62.09-3.705 66.905c0 0 3.39 13.555 8.11 19.41 0 0 4.595 1.76 7.99.63 3.395-1.13 9.31-1.03 13.71-1.33 4.4-.3 11.235-2.565 11.235-2.565s-3.685-7.675-7.835-10.065c0 0-.63-5.915-2.265-7.675z"/>
                <path fill="#000" d="M38.235 82.62a40.098 40.098 0 0 0-1.655-2.87 32.025 32.025 0 0 0-1.885-2.71c-.68-.87-1.38-1.73-2.195-2.505-.745-.71-1.55-1.385-2.475-1.915-.1-.58-.215-1.15-.34-1.72-.145-.67-.33-1.33-.53-1.985s-.435-1.3-.715-1.93c-.29-.635-.595-1.23-1.15-1.76l-.27-.07-.24-.055-.48-.11-.965-.2c-.645-.12-1.29-.25-1.935-.345a64.089 64.089 0 0 0-3.9-.535c-2.61-.29-5.24-.465-7.875-.46-.66-.02-1.32 0-1.98.03-.66.03-1.32.025-1.98.09l-1.98.155c-.66.08-1.315.185-1.975.275-2.625.43-5.245 1.12-7.67 2.32l-.515.255.15.495c.525 1.71 1.11 3.375 1.71 5.045.595 1.67 1.21 3.325 1.86 4.975.325.825.66 1.645 1 2.46.355.81.71 1.625 1.095 2.425.785 1.595 1.585 3.2 2.675 4.665l.075.1.14.055a18.98 18.98 0 0 0 4.185 1.13c.725.105 1.465.15 2.215.12l.565-.04.57-.085c.19-.02.38-.08.57-.125l.525-.135c1.245-.35 2.605-.5 3.96-.62 1.36-.115 2.74-.17 4.13-.21l4.195-.125 1.06-.05c.365-.03.74-.05 1.095-.105.725-.09 1.435-.2 2.135-.34 1.41-.26 2.785-.595 4.15-.98a75.842 75.842 0 0 0 4.06-1.255l1.095-.38-.505-.975zm-9.19 1.505c-.67.13-1.335.24-1.995.325-.335.05-.66.065-.985.105l-1.03.08-4.17.25c-1.4.085-2.81.185-4.225.345-1.415.17-2.84.39-4.27.86l-.48.155c-.15.04-.29.105-.445.13l-.46.1-.475.06c-.64.065-1.3.09-1.965.045a16.773 16.773 0 0 1-3.84-.71c-1.06-1.275-1.97-2.71-2.755-4.21-.83-1.54-1.51-3.16-2.14-4.8a58.545 58.545 0 0 1-1.645-5.005c-.415-1.5-.785-3.02-1.11-4.53 2.22-.78 4.555-1.22 6.905-1.575 2.53-.375 5.105-.555 7.68-.65 2.58-.105 5.175-.085 7.77-.025.65.005 1.3.03 1.95.055l1.95.075 3.875.19.24.39.215.44c.12.31.24.61.335.93.19.63.345 1.28.46 1.935.225 1.305.395 2.64.48 3.955l.015.26.27.18c.83.55 1.57 1.265 2.25 2.035.685.77 1.305 1.615 1.89 2.48.59.865 1.125 1.77 1.65 2.685.32.57.63 1.155.925 1.74a80.073 80.073 0 0 1-6.87 1.7z"/>
            </g>
            <g>
                <path fill="#37A8FF" d="M55.98 70.965s4.88-1.175 12.395-.3"/>
                <path fill="#000" d="M55.745 69.99c1.14-.16 2.17-.2 3.24-.225 1.06-.015 2.12.015 3.17.08a46.37 46.37 0 0 1 3.13.31 53.76 53.76 0 0 1 3.09.51c-1.04-.03-2.08-.045-3.115-.01-1.035.025-2.065.1-3.09.19a43.7 43.7 0 0 0-3.045.415c-.99.175-2.025.395-2.915.675l-.465-1.945z"/>
            </g>
            <g>
                <path fill="#37A8FF" d="M29.39 72.33s-5.855-1.345-12.57-.345"/>
                <path fill="#000" d="M29.165 73.305c-.935-.285-1.97-.515-2.975-.71a37.283 37.283 0 0 0-3.085-.46 34.262 34.262 0 0 0-3.13-.21c-1.05-.035-2.1.005-3.155.06 1.03-.22 2.075-.43 3.13-.56a37.488 37.488 0 0 1 3.185-.29c1.07-.055 2.14-.065 3.215-.03 1.085.035 2.135.1 3.265.25l-.45 1.95z"/>
            </g>
            <g>
                <path fill="#FFF" d="M89.02 47.235L22.46 55.98a4.162 4.162 0 0 1-4.67-3.585l-3.005-22.86a4.162 4.162 0 0 1 3.585-4.67l66.565-8.745a4.162 4.162 0 0 1 4.67 3.585l3.005 22.86a4.17 4.17 0 0 1-3.59 4.67z"/>
                <path fill="#D62329" d="M89.03 47.31c-8.535 1.1-17.035 2.455-25.545 3.755A746.263 746.263 0 0 1 37.91 54.58l-12.825 1.475-1.605.185c-.53.05-1.055.15-1.66.135a4.504 4.504 0 0 1-4.025-2.84c-.22-.53-.295-1.125-.35-1.64l-.39-3.205c-.53-4.27-1.12-8.53-1.7-12.795a595.548 595.548 0 0 0-.895-6.4 4.484 4.484 0 0 1 .89-3.29 4.548 4.548 0 0 1 2.97-1.74c8.515-1.265 17.03-2.49 25.555-3.655 8.525-1.17 17.05-2.355 25.585-3.455 4.27-.535 8.535-1.095 12.81-1.605l1.6-.195.8-.095c.125-.02.28-.03.44-.04.155-.015.31-.02.47-.01a4.818 4.818 0 0 1 3.325 1.495c.425.45.765.98.985 1.555.235.565.305 1.22.35 1.725l.345 3.21 1.4 12.835c.225 2.14.5 4.27.74 6.415a4.3 4.3 0 0 1-.895 3.095 4.313 4.313 0 0 1-2.8 1.57zm-.02-.15a4.076 4.076 0 0 0 2.67-1.54c.65-.83.96-1.915.82-2.96-.305-2.125-.6-4.26-.935-6.385L89.6 23.515l-.495-3.19c-.08-.565-.155-.99-.345-1.415a3.51 3.51 0 0 0-3.22-2.13 1.88 1.88 0 0 0-.335.015c-.11.01-.225.02-.365.04l-.8.115-1.595.225c-4.26.61-8.525 1.17-12.785 1.76-8.53 1.14-17.07 2.2-25.605 3.27a2095.413 2095.413 0 0 1-25.635 3.07 3.792 3.792 0 0 0-3.32 4.145c.235 2.125.505 4.27.775 6.4.535 4.27 1.07 8.54 1.66 12.8l.45 3.195c.07.545.145 1.035.345 1.495.195.46.475.885.83 1.23.71.7 1.69 1.105 2.67 1.1.47 0 1.01-.11 1.545-.18l1.595-.235 12.77-1.885a746.296 746.296 0 0 1 25.615-3.21c8.565-.945 17.13-1.825 25.655-2.97z"/>
                <g fill="#D62329">
                    <path d="M25.26 33.925l.505 3.835 7.195-.945.485 3.705-7.195.945.95 7.225-4.44.585-2.445-18.595 12.24-1.61.505 3.835zM48.94 45.83l-1.925-3.46-7.195.945-.885 3.83-4.885.64 5.355-19.62 4.36-.575L53.93 45.17l-4.99.66zm-6.78-12.975l-1.525 6.695 4.675-.615-3.15-6.08zM66.65 43.505l-8.035-7.655-.05.005 1.125 8.56-4.385.575-2.445-18.595 4.385-.575.995 7.565.08-.01 5.65-8.435 5.62-.74-6.885 9.615 9.8 8.92zM73.855 42.555L71.41 23.96l12.5-1.645.495 3.78-8.17 1.075.46 3.52 7.72-1.015.475 3.6-7.72 1.015.505 3.86 8.64-1.135.505 3.835z"/>
                </g>
            </g>
        </g>
    </g>
</svg>
