<svg xmlns="http://www.w3.org/2000/svg" xmlns:xlink="http://www.w3.org/1999/xlink" width="110" height="110" viewBox="0 0 110 110">
    <defs>
        <path id="a" d="M.258 54.7c0 30.184 24.468 54.653 54.652 54.653 30.183 0 54.651-24.47 54.651-54.652C109.561 24.517 85.093.049 54.91.049 24.726.049.258 24.517.258 54.7"/>
        <path id="c" d="M.258 54.7c0 30.184 24.468 54.653 54.652 54.653 30.183 0 54.651-24.47 54.651-54.652C109.561 24.517 85.093.049 54.91.049 24.726.049.258 24.517.258 54.7z"/>
        <path id="e" d="M.258 54.7c0 30.184 24.468 54.653 54.652 54.653 30.183 0 54.651-24.47 54.651-54.652C109.561 24.517 85.093.049 54.91.049 24.726.049.258 24.517.258 54.7"/>
        <path id="g" d="M.258 54.7c0 30.184 24.468 54.653 54.652 54.653 30.183 0 54.651-24.47 54.651-54.652C109.561 24.517 85.093.049 54.91.049 24.726.049.258 24.517.258 54.7z"/>
        <path id="i" d="M.258 54.7c0 30.184 24.468 54.653 54.652 54.653 30.183 0 54.651-24.47 54.651-54.652C109.561 24.517 85.093.049 54.91.049 24.726.049.258 24.517.258 54.7"/>
        <path id="k" d="M.258 54.7c0 30.184 24.468 54.653 54.652 54.653 30.183 0 54.651-24.47 54.651-54.652C109.561 24.517 85.093.049 54.91.049 24.726.049.258 24.517.258 54.7"/>
        <path id="m" d="M.258 54.7c0 30.184 24.468 54.653 54.652 54.653 30.183 0 54.651-24.47 54.651-54.652C109.561 24.517 85.093.049 54.91.049 24.726.049.258 24.517.258 54.7z"/>
        <path id="o" d="M.258 54.7c0 30.184 24.468 54.653 54.652 54.653 30.183 0 54.651-24.47 54.651-54.652C109.561 24.517 85.093.049 54.91.049 24.726.049.258 24.517.258 54.7"/>
        <path id="q" d="M.258 54.7c0 30.184 24.468 54.653 54.652 54.653 30.183 0 54.651-24.47 54.651-54.652C109.561 24.517 85.093.049 54.91.049 24.726.049.258 24.517.258 54.7"/>
        <path id="s" d="M.258 54.7c0 30.184 24.468 54.653 54.652 54.653 30.183 0 54.651-24.47 54.651-54.652C109.561 24.517 85.093.049 54.91.049 24.726.049.258 24.517.258 54.7z"/>
        <path id="u" d="M.258 54.7c0 30.184 24.468 54.653 54.652 54.653 30.183 0 54.651-24.47 54.651-54.652C109.561 24.517 85.093.049 54.91.049 24.726.049.258 24.517.258 54.7"/>
        <path id="w" d="M.258 54.7c0 30.184 24.468 54.653 54.652 54.653 30.183 0 54.651-24.47 54.651-54.652C109.561 24.517 85.093.049 54.91.049 24.726.049.258 24.517.258 54.7"/>
        <path id="y" d="M.258 54.7c0 30.184 24.468 54.653 54.652 54.653 30.183 0 54.651-24.47 54.651-54.652C109.561 24.517 85.093.049 54.91.049 24.726.049.258 24.517.258 54.7z"/>
        <path id="A" d="M.258 54.7c0 30.184 24.468 54.653 54.652 54.653 30.183 0 54.651-24.47 54.651-54.652C109.561 24.517 85.093.049 54.91.049 24.726.049.258 24.517.258 54.7"/>
        <path id="C" d="M.258 54.7c0 30.184 24.468 54.653 54.652 54.653 30.183 0 54.651-24.47 54.651-54.652C109.561 24.517 85.093.049 54.91.049 24.726.049.258 24.517.258 54.7"/>
        <path id="E" d="M.258 54.7c0 30.184 24.468 54.653 54.652 54.653 30.183 0 54.651-24.47 54.651-54.652C109.561 24.517 85.093.049 54.91.049 24.726.049.258 24.517.258 54.7z"/>
        <path id="G" d="M.258 54.7c0 30.184 24.468 54.653 54.652 54.653 30.183 0 54.651-24.47 54.651-54.652C109.561 24.517 85.093.049 54.91.049 24.726.049.258 24.517.258 54.7"/>
        <path id="I" d="M.258 54.7c0 30.184 24.468 54.653 54.652 54.653 30.183 0 54.651-24.47 54.651-54.652C109.561 24.517 85.093.049 54.91.049 24.726.049.258 24.517.258 54.7z"/>
    </defs>
    <g fill="none" fill-rule="evenodd">
        <g transform="translate(0 .34)">
            <mask id="b" fill="#fff">
                <use xlink:href="#a"/>
            </mask>
            <path fill="#CDB8E3" d="M109.562 54.7c0 30.184-24.47 54.652-54.652 54.652-30.184 0-54.652-24.468-54.652-54.651C.258 24.517 24.726.049 54.91.049c30.183 0 54.652 24.468 54.652 54.652" mask="url(#b)"/>
        </g>
        <g transform="translate(0 .34)">
            <mask id="d" fill="#fff">
                <use xlink:href="#c"/>
            </mask>
            <path fill="#E3D7EF" d="M26.427-20.762s-1.216 60.097 29.579 77.14c46.211 25.576 26.256 68.474 26.256 68.474s-90.229 0-94.307-3.046c-4.078-3.046 6.28-95.98 6.28-95.98l32.192-46.588z" mask="url(#d)"/>
        </g>
        <g transform="translate(0 .34)">
            <mask id="f" fill="#fff">
                <use xlink:href="#e"/>
            </mask>
            <path fill="#EDE8F3" d="M54.91 34.46c0 11.037-8.947 19.984-19.984 19.984-11.038 0-19.985-8.947-19.985-19.984 0-11.037 8.947-19.984 19.985-19.984 11.037 0 19.984 8.947 19.984 19.984" mask="url(#f)"/>
        </g>
        <g transform="translate(0 .34)">
            <mask id="h" fill="#fff">
                <use xlink:href="#g"/>
            </mask>
            <path fill="#000" d="M54.817 34.46l-.118-1.948c-.09-.643-.199-1.285-.31-1.924-.153-.63-.35-1.251-.521-1.874-.209-.613-.474-1.206-.715-1.805-1.073-2.352-2.655-4.438-4.529-6.148-3.776-3.393-8.708-5.343-13.699-5.295-4.975.01-9.927 1.967-13.513 5.48-3.58 3.5-5.793 8.402-5.963 13.514-.059 2.547.341 5.136 1.306 7.526a18.535 18.535 0 0 0 4.252 6.392c.48.43.968.851 1.455 1.27.527.369 1.04.757 1.574 1.11.564.31 1.115.636 1.682.93.589.25 1.165.526 1.758.757a19.721 19.721 0 0 0 7.45 1.227c5.039-.11 9.945-2.075 13.718-5.493 1.87-1.72 3.45-3.808 4.523-6.163.24-.598.506-1.192.713-1.805.171-.625.366-1.246.52-1.877.11-.639.216-1.282.305-1.926l.112-1.948zm.186 0l-.086 1.97c-.075.651-.19 1.3-.27 1.953-.122.646-.288 1.284-.432 1.928-.187.632-.41 1.254-.608 1.888-.926 2.479-2.31 4.821-4.138 6.804-1.817 1.987-4.07 3.619-6.584 4.673-2.5 1.08-5.245 1.59-7.96 1.541a20.46 20.46 0 0 1-7.845-1.818c-.606-.286-1.193-.615-1.786-.92-.572-.346-1.123-.726-1.682-1.087l-1.577-1.225-1.453-1.363c-3.713-3.792-5.996-8.966-6.15-14.344-.073-2.679.355-5.403 1.343-7.933a20.221 20.221 0 0 1 4.402-6.815 20.974 20.974 0 0 1 6.73-4.607c2.522-1.086 5.277-1.615 8.018-1.62 2.74.039 5.487.579 7.99 1.687 2.511 1.085 4.758 2.73 6.574 4.725 3.656 4.003 5.523 9.321 5.514 14.563z" mask="url(#h)"/>
        </g>
        <g transform="translate(0 .34)">
            <mask id="j" fill="#fff">
                <use xlink:href="#i"/>
            </mask>
            <path fill="#6950AA" d="M34.872 36.546a8.445 8.445 0 1 0 0-16.89 8.445 8.445 0 0 0 0 16.89" mask="url(#j)"/>
        </g>
        <g transform="translate(0 .34)">
            <mask id="l" fill="#fff">
                <use xlink:href="#k"/>
            </mask>
            <path fill="#000" d="M34.872 36.639c-2.217-.002-4.529-.629-6.408-2.13a8.085 8.085 0 0 1-2.224-2.831 8.83 8.83 0 0 1-.804-3.577c-.04-2.478 1.063-4.929 2.844-6.592a8.765 8.765 0 0 1 3.075-1.897c1.135-.41 2.348-.54 3.517-.464 2.349.176 4.527 1.195 6.182 2.77a10.246 10.246 0 0 1 2.092 2.756 8.48 8.48 0 0 1 .944 3.427 7.872 7.872 0 0 1-.657 3.547 7.716 7.716 0 0 1-2.172 2.842c-.92.756-1.984 1.283-3.067 1.633-1.09.339-2.205.509-3.322.516m0-.186a6.677 6.677 0 0 0 3.14-.77c.96-.496 1.769-1.222 2.412-2.03a9.987 9.987 0 0 0 2.118-5.552 8.562 8.562 0 0 0-.342-3.035 7.014 7.014 0 0 0-1.569-2.724 7.045 7.045 0 0 0-2.649-1.75c-.995-.382-2.072-.506-3.11-.427a8.404 8.404 0 0 0-5.351 2.585c-1.363 1.458-2.077 3.4-2.103 5.351-.013.98.152 1.956.483 2.887a9.205 9.205 0 0 0 1.436 2.648c.636.81 1.443 1.537 2.4 2.032.95.51 2.041.778 3.135.785" mask="url(#l)"/>
        </g>
        <g transform="translate(0 .34)">
            <mask id="n" fill="#fff">
                <use xlink:href="#m"/>
            </mask>
            <path fill="#6950AA" d="M19.685 47.428c3.666 4.291 9.113 7.016 15.2 7.016 6.131 0 11.615-2.764 15.28-7.111v-2.472a5.526 5.526 0 0 0-5.524-5.526H25.21a5.526 5.526 0 0 0-5.526 5.526v2.567z" mask="url(#n)"/>
        </g>
        <g transform="translate(0 .34)">
            <mask id="p" fill="#fff">
                <use xlink:href="#o"/>
            </mask>
            <path fill="#000" d="M43.172 52.209c-2.634 1.076-5.464 1.446-8.227 1.41l-1.039-.032c-.346-.018-.69-.062-1.035-.085a20.359 20.359 0 0 1-2.056-.298c-1.355-.284-2.698-.665-3.982-1.214a21.731 21.731 0 0 1-3.718-1.967l-.875-.603-.85-.647-.827-.685-.79-.692c.09-.893.16-1.747.232-2.58a5.53 5.53 0 0 1 .757-2.28c.831-1.358 2.274-2.25 3.772-2.378.185-.03.375-.018.561-.021.18-.004.425.014.634.02l1.307.04 2.614.073c1.743.02 3.486.076 5.228.056 1.743.009 3.486-.032 5.228-.067l2.614-.052 1.307-.026.647-.011c.185.01.373-.006.557.02a5.091 5.091 0 0 1 2.115.704 5.255 5.255 0 0 1 1.625 1.608c.408.663.664 1.43.723 2.229.051.809.082 1.654.12 2.482-1.748 2.182-4.051 3.948-6.642 4.996m6.843-10.277a6.246 6.246 0 0 0-1.853-2.232 6.126 6.126 0 0 0-2.73-1.124c-.246-.047-.496-.048-.745-.07l-.66-.017-1.307-.025-2.614-.052c-1.742-.036-3.485-.076-5.228-.068-1.742-.02-3.485.036-5.228.057l-2.614.073-1.307.04c-.226.011-.416.01-.672.033-.248.023-.496.035-.74.09-1.97.329-3.67 1.693-4.447 3.431a5.751 5.751 0 0 0-.5 2.743c.064.91.14 1.798.228 2.649.21.292.427.606.662.916l.709.844c.254.265.505.535.766.796.27.25.534.512.816.751 1.12.97 2.372 1.797 3.703 2.48 2.673 1.335 5.686 2.069 8.696 2.018 3.018-.042 5.96-.963 8.558-2.34 2.604-1.382 4.955-3.18 6.923-5.368l.075-.085.006-.14c.035-.876.086-1.73.11-2.624a6.262 6.262 0 0 0-.607-2.776" mask="url(#p)"/>
        </g>
        <g transform="translate(0 .34)">
            <mask id="r" fill="#fff">
                <use xlink:href="#q"/>
            </mask>
            <path fill="#EDE8F3" d="M94.878 74.429c0 11.036-8.947 19.984-19.984 19.984-11.037 0-19.984-8.948-19.984-19.984 0-11.038 8.947-19.985 19.984-19.985 11.037 0 19.984 8.947 19.984 19.985" mask="url(#r)"/>
        </g>
        <g transform="translate(0 .34)">
            <mask id="t" fill="#fff">
                <use xlink:href="#s"/>
            </mask>
            <path fill="#000" d="M94.786 74.429l-.118-1.948a57.857 57.857 0 0 0-.31-1.925c-.154-.63-.35-1.25-.522-1.874-.208-.613-.474-1.206-.714-1.804-1.074-2.353-2.655-4.439-4.529-6.149-3.777-3.393-8.709-5.342-13.699-5.295-4.975.01-9.928 1.967-13.514 5.48-3.58 3.5-5.793 8.402-5.962 13.515-.059 2.546.34 5.135 1.305 7.526a18.542 18.542 0 0 0 4.253 6.392c.48.43.967.85 1.455 1.269.526.37 1.039.757 1.574 1.11.563.31 1.114.637 1.682.93.589.251 1.165.526 1.758.757a19.7 19.7 0 0 0 7.45 1.227c5.038-.109 9.944-2.075 13.718-5.492 1.869-1.72 3.449-3.808 4.523-6.164.24-.598.506-1.192.713-1.805.17-.624.366-1.245.518-1.876.112-.64.218-1.282.306-1.926l.113-1.948zm.185 0l-.086 1.968c-.074.653-.19 1.301-.268 1.955-.123.646-.29 1.284-.433 1.928-.187.632-.411 1.254-.608 1.887-.926 2.48-2.31 4.822-4.139 6.804-1.817 1.987-4.07 3.619-6.583 4.673-2.502 1.08-5.246 1.59-7.96 1.542a20.467 20.467 0 0 1-7.845-1.818c-.607-.286-1.193-.615-1.787-.92-.572-.347-1.123-.727-1.682-1.088l-1.576-1.225-1.454-1.363c-3.713-3.791-5.996-8.965-6.148-14.343-.075-2.68.353-5.403 1.342-7.933a20.21 20.21 0 0 1 4.402-6.816 20.97 20.97 0 0 1 6.73-4.607c2.522-1.085 5.276-1.614 8.018-1.619 2.74.038 5.487.579 7.99 1.687 2.51 1.084 4.758 2.73 6.573 4.724 3.656 4.003 5.523 9.322 5.514 14.564z" mask="url(#t)"/>
        </g>
        <g transform="translate(0 .34)">
            <mask id="v" fill="#fff">
                <use xlink:href="#u"/>
            </mask>
            <path fill="#00A69C" d="M74.84 76.514c3.429 0 7.422-3.78 7.422-8.444 0-4.664-2.758-8.445-7.422-8.445-4.663 0-7.382 3.78-7.382 8.445 0 4.663 4.473 8.444 7.382 8.444" mask="url(#v)"/>
        </g>
        <g transform="translate(0 .34)">
            <mask id="x" fill="#fff">
                <use xlink:href="#w"/>
            </mask>
            <path fill="#000" d="M74.84 76.607c-1.07-.01-2.085-.381-3.049-.838-.957-.477-1.878-1.08-2.684-1.84a8.501 8.501 0 0 1-1.955-2.73 8.086 8.086 0 0 1-.685-3.388c.023-2.232.739-4.56 2.296-6.309.77-.868 1.75-1.57 2.835-1.965 1.083-.407 2.236-.499 3.326-.412a8.604 8.604 0 0 1 3.142.865c.974.481 1.823 1.177 2.525 1.995a10.326 10.326 0 0 1 2.437 5.975 7.676 7.676 0 0 1-.534 3.338 7.905 7.905 0 0 1-1.879 2.761c-.798.77-1.73 1.369-2.703 1.816-.979.433-2.014.72-3.072.732m0-.185c1.02-.003 2.018-.38 2.835-.966.83-.578 1.493-1.351 2.026-2.164 1.052-1.648 1.683-3.437 1.79-5.319.061-.967.019-1.95-.18-2.915a6.746 6.746 0 0 0-1.185-2.696 5.63 5.63 0 0 0-2.323-1.802c-.912-.386-1.915-.507-2.888-.43-1.965.14-3.704 1.053-4.815 2.492-1.124 1.45-1.59 3.344-1.643 5.23a7.363 7.363 0 0 0 .387 2.69c.288.88.697 1.748 1.227 2.572.531.82 1.184 1.604 1.991 2.213.795.61 1.762 1.074 2.778 1.095" mask="url(#x)"/>
        </g>
        <g transform="translate(0 .34)">
            <mask id="z" fill="#fff">
                <use xlink:href="#y"/>
            </mask>
            <path fill="#00A69C" d="M59.654 87.396c3.665 4.292 9.112 7.017 15.2 7.017 6.13 0 11.614-2.764 15.28-7.111v-2.473a5.525 5.525 0 0 0-5.525-5.525h-19.43a5.526 5.526 0 0 0-5.525 5.525v2.567z" mask="url(#z)"/>
        </g>
        <g transform="translate(0 .34)">
            <mask id="B" fill="#fff">
                <use xlink:href="#A"/>
            </mask>
            <path fill="#000" d="M83.141 92.177c-2.634 1.077-5.465 1.447-8.228 1.41l-1.038-.031c-.346-.018-.69-.062-1.035-.085a20.492 20.492 0 0 1-2.056-.299c-1.356-.284-2.699-.665-3.983-1.213a21.714 21.714 0 0 1-3.717-1.968l-.875-.603-.85-.647-.828-.684-.79-.693c.09-.892.16-1.746.232-2.579a5.524 5.524 0 0 1 .757-2.281c.832-1.357 2.275-2.249 3.772-2.378.186-.029.375-.017.562-.02.179-.005.425.013.634.02l1.307.04 2.614.072c1.742.02 3.485.076 5.228.057 1.742.008 3.485-.032 5.228-.068l2.614-.05 1.307-.027.647-.012c.184.01.373-.006.557.02a5.078 5.078 0 0 1 2.114.705 5.254 5.254 0 0 1 1.625 1.608c.409.662.664 1.43.724 2.229.05.808.081 1.653.12 2.481-1.749 2.183-4.052 3.948-6.642 4.996M89.983 81.9a6.236 6.236 0 0 0-1.852-2.232 6.117 6.117 0 0 0-2.73-1.124c-.246-.047-.497-.047-.746-.07l-.66-.017-1.306-.025-2.614-.052c-1.743-.035-3.486-.076-5.228-.067-1.743-.02-3.486.036-5.228.056l-2.614.073-1.307.04c-.227.012-.417.011-.673.033-.248.024-.496.035-.74.091-1.97.329-3.669 1.692-4.446 3.43a5.755 5.755 0 0 0-.5 2.744c.063.91.139 1.798.228 2.649.21.291.426.606.662.915l.708.844c.254.265.506.535.767.796.27.25.534.512.816.751 1.12.97 2.372 1.797 3.702 2.48 2.673 1.336 5.687 2.069 8.696 2.02 3.018-.044 5.96-.964 8.559-2.34 2.604-1.383 4.954-3.182 6.922-5.37l.076-.085.005-.138c.035-.877.087-1.731.111-2.626a6.256 6.256 0 0 0-.608-2.776" mask="url(#B)"/>
        </g>
        <g transform="translate(0 .34)">
            <mask id="D" fill="#fff">
                <use xlink:href="#C"/>
            </mask>
            <path fill="#FF5331" d="M83.285 42.482c-3.436-12.112-10.936-21.476-23.631-23.34v7.975c8.615 1.688 18.082 7.675 20.913 15.82-2.8.284-7.484.713-7.484.713l10.202 7.555 6.117-9.178c-.103 0-4.24.27-6.117.455" mask="url(#D)"/>
        </g>
        <g transform="translate(0 .34)">
            <mask id="F" fill="#fff">
                <use xlink:href="#E"/>
            </mask>
            <path fill="#000" d="M85.784 46.243l-2.676 3.77c-1.45-1.121-2.894-2.249-4.36-3.35l-2.528-1.917c-.16-.123-.324-.242-.485-.363.394-.04.788-.08 1.182-.124l3.742-.41 1.17-.127-.396-1.085c-.83-2.263-2.116-4.314-3.665-6.09-1.547-1.78-3.361-3.292-5.305-4.562a34.687 34.687 0 0 0-6.152-3.18c-2.072-.811-4.198-1.474-6.377-1.911.012-1.255.01-2.51.044-3.764.024-1.147.063-2.293.107-3.44a28.084 28.084 0 0 1 7.588 2.791c2.498 1.366 4.806 3.073 6.783 5.14 1.985 2.056 3.676 4.41 5.101 6.93.337.64.712 1.263 1.03 1.916.306.659.64 1.307.943 1.972l.867 2.025c.275.736.573 1.432.835 2.095l3.028-.034c.74-.011 1.494-.02 2.252-.033a521.436 521.436 0 0 0-2.728 3.751zm3.618-4.663c-.977.12-1.967.268-2.975.404l-3.09.421-.468-2.118c-.186-.697-.416-1.416-.63-2.123-.227-.708-.5-1.4-.76-2.097-.27-.694-.59-1.369-.89-2.053-1.283-2.696-2.928-5.254-4.974-7.485-2.04-2.23-4.483-4.137-7.227-5.442-2.734-1.327-5.704-2.065-8.67-2.388l-.532-.057.02.5c.053 1.33.097 2.659.123 3.988.038 1.329.031 2.658.046 3.987l.002.229.223.045c2.21.447 4.37 1.155 6.407 2.117a31.366 31.366 0 0 1 5.742 3.485c1.768 1.361 3.388 2.895 4.77 4.602 1.122 1.39 2.073 2.91 2.756 4.528l-2.543.206c-1.248.095-2.494.22-3.74.335l-2.593.238 2.094 1.545c.852.627 1.693 1.269 2.553 1.885l2.572 1.86c1.71 1.247 3.446 2.457 5.17 3.684l.735.522.456-.73 2.923-4.68a441.23 441.23 0 0 0 2.872-4.713l.48-.8-.852.105z" mask="url(#F)"/>
        </g>
        <g transform="translate(0 .34)">
            <mask id="H" fill="#fff">
                <use xlink:href="#G"/>
            </mask>
            <path fill="#FF5331" d="M23.082 67.12c3.436 12.112 10.936 21.476 23.631 23.34v-7.975C38.098 80.797 28.63 74.81 25.8 66.665c2.8-.284 7.484-.713 7.484-.713l-10.202-7.555-6.117 9.178c.103 0 4.24-.27 6.117-.455" mask="url(#H)"/>
        </g>
        <g transform="translate(0 .34)">
            <mask id="J" fill="#fff">
                <use xlink:href="#I"/>
            </mask>
            <path fill="#000" d="M31.911 81.98c-1.985-2.055-3.676-4.408-5.102-6.928-.337-.64-.711-1.264-1.03-1.917-.306-.659-.64-1.307-.942-1.972l-.867-2.025c-.275-.735-.573-1.431-.836-2.095l-3.027.035c-.741.01-1.494.019-2.252.032a488.76 488.76 0 0 0 2.727-3.751l2.677-3.77c1.449 1.121 2.894 2.25 4.359 3.35l2.528 1.917c.16.123.324.242.486.363-.395.04-.79.08-1.183.124l-3.741.41-1.171.127.397 1.085c.83 2.264 2.116 4.314 3.665 6.09 1.547 1.78 3.36 3.292 5.305 4.562a34.707 34.707 0 0 0 6.152 3.18c2.072.811 4.198 1.474 6.376 1.911-.012 1.255-.008 2.51-.044 3.764a189.177 189.177 0 0 1-.106 3.44 28.084 28.084 0 0 1-7.589-2.791c-2.497-1.366-4.806-3.073-6.782-5.14zm15.25 8.48c-.054-1.33-.097-2.659-.123-3.988-.038-1.33-.031-2.658-.046-3.987l-.003-.229-.223-.045a28.082 28.082 0 0 1-6.406-2.116 31.366 31.366 0 0 1-5.743-3.486c-1.767-1.361-3.388-2.895-4.77-4.602-1.12-1.39-2.073-2.91-2.755-4.528l2.543-.206c1.248-.095 2.493-.22 3.74-.335l2.594-.238-2.096-1.544c-.851-.628-1.692-1.27-2.552-1.886l-2.573-1.859c-1.708-1.247-3.445-2.458-5.17-3.684l-.734-.523-.456.73-2.924 4.68a445.974 445.974 0 0 0-2.871 4.713l-.48.8.852-.105c.977-.12 1.967-.268 2.975-.404l3.09-.422.468 2.12c.185.696.416 1.416.63 2.123.227.707.5 1.398.76 2.097.27.693.59 1.368.89 2.052 1.283 2.696 2.928 5.254 4.974 7.485 2.04 2.23 4.483 4.137 7.227 5.443 2.733 1.326 5.704 2.064 8.669 2.387l.533.058-.02-.501z" mask="url(#J)"/>
        </g>
    </g>
</svg>
