<svg xmlns="http://www.w3.org/2000/svg" xmlns:xlink="http://www.w3.org/1999/xlink" width="110" height="110" viewBox="0 0 110 110">
    <defs>
        <path id="a" d="M.177 54.95c0 30.31 24.572 54.882 54.884 54.882 30.311 0 54.883-24.572 54.883-54.883 0-30.311-24.572-54.884-54.883-54.884C24.749.065.177 24.638.177 54.95z"/>
    </defs>
    <g fill="none" fill-rule="evenodd">
        <mask id="b" fill="#fff">
            <use xlink:href="#a"/>
        </mask>
        <path fill="#C4EEFF" d="M-4.195 111.583h116.377V-7.924H-4.195z" mask="url(#b)"/>
        <path fill="#90CFE8" d="M-4.195 111.583V-7.924h116.377z" mask="url(#b)"/>
        <path fill="#93D3ED" d="M30.493 88.339h57.36v-57.36h-57.36z" mask="url(#b)"/>
        <path fill="#ECE6FF" d="M26.386 83.623h57.348V26.275H26.386z" mask="url(#b)"/>
        <path fill="#000" d="M83.668 83.557l-.324-14.537-.283-14.35-.209-14.226c-.073-4.731-.078-9.447-.112-14.17l.995.995c-4.78 0-9.559.012-14.338-.022l-14.337-.095c-4.778-.022-9.557-.08-14.336-.138-4.78-.04-9.558-.154-14.337-.229l.51-.51c-.063 4.779-.168 9.558-.194 14.337-.04 4.779-.04 9.558-.014 14.337l.081 7.168.136 7.169.257 14.337-.776-.776c4.734-.056 9.452-.071 14.182-.036l7.097.053 7.118.091c4.754.068 9.524.153 14.335.257l14.55.345zm.132.132l-14.123.344c-4.748.105-9.536.19-14.34.257l-7.219.092-7.24.051c-4.827.037-9.667.021-14.491-.034l-.79-.01.014-.766.257-14.337.136-7.169.08-7.168c.027-4.78.026-9.558-.014-14.337-.025-4.779-.13-9.558-.194-14.337l-.006-.502.517-.008c4.779-.075 9.558-.189 14.337-.23 4.779-.056 9.558-.115 14.337-.137l14.336-.094c4.78-.036 9.559-.023 14.338-.023h1l-.006.994c-.034 4.836-.04 9.678-.112 14.505l-.21 14.448-.282 14.323-.325 14.138z" mask="url(#b)"/>
        <path fill="#000" d="M83.828 65.796a5.102 5.102 0 0 1-.005 2.541 4.64 4.64 0 0 1-1.408 2.324c-.708.622-1.588 1.017-2.47 1.197-.885.19-1.793.096-2.558-.009-.8-.108-1.599-.229-2.397-.303a19.238 19.238 0 0 0-2.398-.056c-1.598.047-3.196.32-4.794.464l.757-.758c.096 1.228.148 2.456.2 3.684.062 1.228.056 2.456.002 3.685-.022.613-.072 1.227-.112 1.842-.05.569-.056 1.326-.401 2.062a2.41 2.41 0 0 1-.786.94c-.339.23-.703.34-1.045.406-.693.106-1.334.044-1.954-.1v-.186c.606-.144 1.205-.294 1.69-.547.24-.123.442-.274.577-.44.138-.164.211-.345.252-.557.038-.21.056-.449.044-.704-.018-.242-.054-.571-.07-.874-.04-.615-.091-1.229-.113-1.842a38.397 38.397 0 0 1 .003-3.685c.05-1.228.102-2.456.198-3.684l.064-.82.694.063c1.598.143 3.196.416 4.794.463.8.025 1.599.018 2.398-.057.798-.073 1.598-.194 2.397-.302.83-.099 1.532-.178 2.213-.327.68-.143 1.311-.381 1.863-.75.547-.373 1-.89 1.364-1.516.358-.631.612-1.365.814-2.154h.187z" mask="url(#b)"/>
        <path fill="#000" d="M82.988 69.024c-1.234 1.29-2.5 2.54-3.748 3.813a306.704 306.704 0 0 1-3.81 3.742c-1.278 1.238-2.45 2.597-3.872 3.672a31.73 31.73 0 0 1-2.18 1.56c-.752.491-1.528.955-2.37 1.344l-.124-.14c.489-.788 1.045-1.501 1.625-2.187a31.576 31.576 0 0 1 1.814-1.974c1.241-1.28 2.733-2.276 4.119-3.392a303.063 303.063 0 0 1 4.18-3.324c1.415-1.083 2.812-2.188 4.242-3.254l.124.14z" mask="url(#b)"/>
        <path fill="#FF5331" d="M26.386 40.533h57.348V26.275H26.386z" mask="url(#b)"/>
        <path fill="#000" d="M83.668 40.466l-.315-7.22-.254-6.971.636.635c-4.78.148-9.559.223-14.338.297l-7.168.062-7.169-.003-14.336-.152c-4.78-.05-9.558-.192-14.337-.329l.51-.51-.168 7.129a497.953 497.953 0 0 0-.062 7.129l-.28-.28c2.381-.01 4.762-.027 7.135-.08l7.094-.202 7.055-.181 3.529-.037 3.54.004 7.118.09c2.387.05 4.766.08 7.175.15 4.807.114 9.658.262 14.635.47zm.132.132c-4.58.208-9.287.355-14.038.47-2.369.07-4.77.1-7.161.15l-7.22.09-3.628.003-3.64-.036-7.282-.18-7.242-.203c-2.406-.053-4.804-.07-7.202-.08l-.28-.001v-.278c-.007-2.377-.02-4.753-.062-7.13l-.169-7.128-.011-.495.522-.015c4.779-.137 9.558-.28 14.337-.329l14.337-.151 7.168-.004 7.168.063c4.78.074 9.559.148 14.338.295l.656.02-.021.616-.254 7.287-.316 7.036z" mask="url(#b)"/>
        <path fill="#000" d="M36.401 31.072c-.4.188-.903.157-1.34-.006a3.017 3.017 0 0 1-1.126-.78c-.601-.67-.99-1.497-1.046-2.348-.06-.86.22-1.68.348-2.449.142-.776.233-1.548.438-2.376.12-.405.26-.833.528-1.218a2.946 2.946 0 0 1 1.12-.978 2.7 2.7 0 0 1 1.653-.259 2.85 2.85 0 0 1 1.453.72c.74.709 1.086 1.584 1.226 2.428.122.851.06 1.7-.254 2.469h-.187c-.322-.746-.607-1.412-.952-2.003-.35-.581-.743-1.085-1.14-1.391-.402-.29-.679-.428-1.114-.34-.419.113-.958.494-1.418 1.025-.457.535-.755 1.252-.754 1.983-.013.736.314 1.449.575 2.071.126.317.236.623.333.932.115.299.224.601.365.88.294.552.583 1.08 1.292 1.454v.186zM45.986 31.072c-.401.188-.903.157-1.34-.006a3.017 3.017 0 0 1-1.127-.78c-.6-.67-.988-1.497-1.045-2.348-.06-.86.22-1.68.348-2.449.142-.776.233-1.548.438-2.376.12-.405.26-.833.528-1.218a2.944 2.944 0 0 1 1.12-.978 2.7 2.7 0 0 1 1.653-.259 2.85 2.85 0 0 1 1.452.72c.74.709 1.087 1.584 1.226 2.428.123.851.06 1.7-.254 2.469H48.8c-.322-.746-.607-1.412-.952-2.003-.35-.581-.743-1.085-1.14-1.391-.402-.29-.679-.428-1.114-.34-.419.113-.958.494-1.418 1.025-.457.535-.755 1.252-.754 1.983-.013.736.314 1.449.575 2.071.126.317.236.623.333.932.114.299.224.601.365.88.294.552.583 1.08 1.292 1.454v.186zM55.571 31.072c-.402.188-.904.157-1.34-.006a3.017 3.017 0 0 1-1.127-.78c-.6-.67-.989-1.497-1.046-2.348-.06-.86.22-1.68.349-2.449.142-.776.232-1.548.438-2.376.12-.405.26-.833.527-1.218a2.946 2.946 0 0 1 1.121-.978 2.7 2.7 0 0 1 1.652-.259 2.852 2.852 0 0 1 1.453.72c.74.709 1.087 1.584 1.226 2.428.123.851.06 1.7-.254 2.469h-.187c-.321-.746-.606-1.412-.951-2.003-.35-.581-.744-1.085-1.14-1.391-.403-.29-.68-.428-1.114-.34-.42.113-.959.494-1.418 1.025-.457.535-.755 1.252-.755 1.983-.012.736.315 1.449.575 2.071.127.317.237.623.334.932.114.299.223.601.364.88.295.552.584 1.08 1.293 1.454v.186zM65.156 31.072c-.402.188-.904.157-1.34-.006a3.017 3.017 0 0 1-1.127-.78c-.6-.67-.989-1.497-1.046-2.348-.06-.86.22-1.68.348-2.449.142-.776.233-1.548.438-2.376.12-.405.26-.833.528-1.218a2.946 2.946 0 0 1 1.121-.978 2.7 2.7 0 0 1 1.652-.259 2.85 2.85 0 0 1 1.453.72c.74.709 1.086 1.584 1.226 2.428.123.851.06 1.7-.254 2.469h-.187c-.321-.746-.607-1.412-.952-2.003-.35-.581-.743-1.085-1.14-1.391-.402-.29-.678-.428-1.114-.34-.418.113-.958.494-1.418 1.025-.456.535-.755 1.252-.754 1.983-.012.736.314 1.449.575 2.071.126.317.236.623.334.932.114.299.223.601.364.88.295.552.583 1.08 1.293 1.454v.186zM74.74 31.072c-.401.188-.903.157-1.34-.006a3.017 3.017 0 0 1-1.126-.78c-.601-.67-.989-1.497-1.046-2.348-.06-.86.22-1.68.348-2.449.142-.776.233-1.548.438-2.376.12-.405.26-.833.528-1.218a2.944 2.944 0 0 1 1.121-.978 2.7 2.7 0 0 1 1.652-.259 2.85 2.85 0 0 1 1.452.72c.74.709 1.087 1.584 1.227 2.428.122.851.06 1.7-.254 2.469h-.187c-.321-.746-.607-1.412-.952-2.003-.35-.581-.743-1.085-1.14-1.391-.402-.29-.679-.428-1.114-.34-.419.113-.958.494-1.418 1.025-.457.535-.755 1.252-.754 1.983-.013.736.314 1.449.575 2.071.126.317.236.623.333.932.115.299.224.601.365.88.294.552.583 1.08 1.292 1.454v.186z" mask="url(#b)"/>
        <path fill="#FFF" d="M34.121 49.53h7.3v-5.25h-7.3z" mask="url(#b)"/>
        <path fill="#000" d="M41.355 49.464l-.545-2.812c-.157-.841-.283-1.609-.336-2.372l.947.947c-.609.045-1.217.058-1.825.053-.608-.004-1.217-.053-1.825-.084-.609-.041-1.217-.078-1.825-.136-.608-.067-1.217-.173-1.825-.27l.51-.51c-.147.875-.242 1.75-.228 2.625-.001.875.165 1.75.334 2.625l-.616-.616c.572-.116 1.118-.202 1.669-.205.55-.006 1.109.047 1.686.107.577.064 1.174.152 1.814.263.639.108 1.313.233 2.065.385m.132.131c-.465.152-1.007.276-1.585.384a20.44 20.44 0 0 1-1.836.264c-.64.06-1.297.113-1.964.107a11.573 11.573 0 0 1-1.981-.205l-.71-.127.094-.488c.169-.875.334-1.75.334-2.625.014-.875-.082-1.75-.228-2.625l-.07-.419.58-.091c.608-.097 1.216-.203 1.825-.27.608-.057 1.216-.094 1.825-.135.608-.032 1.217-.08 1.825-.085.608-.005 1.216.009 1.825.054l.992.073-.046.873c-.052.987-.179 1.97-.335 2.878-.078.455-.169.889-.258 1.3-.097.404-.184.795-.287 1.137" mask="url(#b)"/>
        <path fill="#FFF" d="M45.694 49.53h7.3v-5.25h-7.3z" mask="url(#b)"/>
        <path fill="#000" d="M52.928 49.464l-.544-2.812c-.157-.841-.284-1.609-.336-2.372l.946.947c-.608.045-1.216.058-1.825.053-.608-.004-1.216-.053-1.824-.084-.61-.041-1.217-.078-1.826-.136-.608-.067-1.216-.173-1.824-.27l.51-.51c-.147.875-.243 1.75-.229 2.625 0 .875.166 1.75.334 2.625l-.615-.616c.572-.116 1.117-.202 1.668-.205.55-.006 1.11.047 1.686.107.578.064 1.174.152 1.815.263.638.108 1.312.233 2.064.385m.132.131c-.464.152-1.007.276-1.585.384-.576.112-1.196.199-1.835.264-.64.06-1.298.113-1.964.107a11.568 11.568 0 0 1-1.981-.205l-.71-.127.094-.488c.168-.875.334-1.75.334-2.625.014-.875-.082-1.75-.229-2.625l-.07-.419.58-.091c.609-.097 1.217-.203 1.825-.27.609-.057 1.217-.094 1.826-.135.608-.032 1.216-.08 1.824-.085.609-.005 1.217.009 1.825.054l.993.073-.046.873c-.052.987-.18 1.97-.336 2.878-.078.455-.168.889-.258 1.3-.096.404-.183.795-.287 1.137" mask="url(#b)"/>
        <path fill="#FFF" d="M57.268 49.53h7.3v-5.25h-7.3z" mask="url(#b)"/>
        <path fill="#000" d="M64.502 49.464l-.545-2.812c-.156-.841-.283-1.609-.336-2.372l.947.947c-.608.045-1.217.058-1.825.053-.609-.004-1.217-.053-1.825-.084-.609-.041-1.217-.078-1.825-.136-.608-.067-1.217-.173-1.825-.27l.51-.51c-.147.875-.242 1.75-.228 2.625 0 .875.166 1.75.334 2.625l-.616-.616c.573-.116 1.118-.202 1.668-.205.55-.006 1.11.047 1.686.107.578.064 1.175.152 1.815.263.639.108 1.313.233 2.065.385m.132.131c-.465.152-1.007.276-1.585.384-.576.112-1.197.199-1.836.264-.64.06-1.297.113-1.963.107a11.578 11.578 0 0 1-1.982-.205l-.71-.127.094-.488c.168-.875.335-1.75.334-2.625.014-.875-.081-1.75-.228-2.625l-.07-.419.58-.091c.608-.097 1.217-.203 1.825-.27.608-.057 1.216-.094 1.825-.135.608-.032 1.216-.08 1.825-.085.608-.005 1.216.009 1.825.054l.993.073-.047.873c-.052.987-.179 1.97-.335 2.878-.078.455-.168.889-.258 1.3-.097.404-.184.795-.287 1.137" mask="url(#b)"/>
        <path fill="#FFF" d="M68.841 49.53h7.3v-5.25h-7.3z" mask="url(#b)"/>
        <path fill="#000" d="M76.075 49.464l-.545-2.812c-.156-.841-.282-1.609-.335-2.372l.947.947c-.61.045-1.217.058-1.826.053-.608-.004-1.216-.053-1.825-.084-.608-.041-1.216-.078-1.824-.136-.609-.067-1.217-.173-1.826-.27l.51-.51c-.146.875-.242 1.75-.228 2.625 0 .875.166 1.75.334 2.625l-.616-.616c.573-.116 1.119-.202 1.67-.205.55-.006 1.109.047 1.685.107.577.064 1.174.152 1.815.263.638.108 1.312.233 2.064.385m.132.131c-.464.152-1.007.276-1.585.384-.576.112-1.196.199-1.835.264-.64.06-1.298.113-1.964.107a11.573 11.573 0 0 1-1.982-.205l-.709-.127.094-.488c.168-.875.334-1.75.333-2.625.015-.875-.081-1.75-.228-2.625l-.07-.419.58-.091c.609-.097 1.217-.203 1.826-.27.608-.057 1.216-.094 1.824-.135.609-.032 1.217-.08 1.825-.085.609-.005 1.217.009 1.826.054l.992.073-.046.873c-.052.987-.18 1.97-.336 2.878-.078.455-.168.889-.258 1.3-.096.404-.183.795-.287 1.137" mask="url(#b)"/>
        <path fill="#FFF" d="M34.121 59.981h7.3v-5.25h-7.3z" mask="url(#b)"/>
        <path fill="#000" d="M41.355 59.915l-.545-2.811c-.157-.842-.283-1.61-.336-2.372l.947.946c-.609.046-1.217.059-1.825.054-.608-.005-1.217-.053-1.825-.084-.609-.041-1.217-.079-1.825-.136-.608-.067-1.217-.173-1.825-.27l.51-.51c-.147.875-.242 1.75-.228 2.625-.001.875.165 1.75.334 2.624l-.616-.616c.572-.115 1.118-.201 1.669-.204.55-.006 1.109.047 1.686.107.577.064 1.174.152 1.814.263.639.108 1.313.232 2.065.384m.132.132c-.465.152-1.007.277-1.585.384-.577.112-1.196.2-1.836.264-.64.06-1.297.112-1.964.107a11.573 11.573 0 0 1-1.981-.205l-.71-.128.094-.488c.169-.874.334-1.75.334-2.624.014-.875-.082-1.75-.228-2.625l-.07-.419.58-.092c.608-.096 1.216-.202 1.825-.269.608-.057 1.216-.095 1.825-.136.608-.031 1.217-.08 1.825-.084.608-.005 1.216.008 1.825.054l.992.073-.046.873a24.836 24.836 0 0 1-.335 2.878c-.078.454-.169.888-.258 1.299-.097.405-.184.796-.287 1.138" mask="url(#b)"/>
        <path fill="#FFF" d="M45.694 59.981h7.3v-5.25h-7.3z" mask="url(#b)"/>
        <path fill="#000" d="M52.928 59.915l-.544-2.811c-.157-.842-.284-1.61-.336-2.372l.946.946c-.608.046-1.216.059-1.825.054-.608-.005-1.216-.053-1.824-.084-.61-.041-1.217-.079-1.826-.136-.608-.067-1.216-.173-1.824-.27l.51-.51c-.147.875-.243 1.75-.229 2.625 0 .875.166 1.75.334 2.624l-.615-.616c.572-.115 1.117-.201 1.668-.204.55-.006 1.11.047 1.686.107.578.064 1.174.152 1.815.263.638.108 1.312.232 2.064.384m.132.132c-.464.152-1.007.277-1.585.384-.576.112-1.196.2-1.835.264-.64.06-1.298.112-1.964.107a11.568 11.568 0 0 1-1.981-.205l-.71-.128.094-.488c.168-.874.334-1.75.334-2.624.014-.875-.082-1.75-.229-2.625l-.07-.419.58-.092c.609-.096 1.217-.202 1.825-.269.609-.057 1.217-.095 1.826-.136.608-.031 1.216-.08 1.824-.084.609-.005 1.217.008 1.825.054l.993.073-.046.873a24.836 24.836 0 0 1-.336 2.878c-.078.454-.168.888-.258 1.299-.096.405-.183.796-.287 1.138" mask="url(#b)"/>
        <path fill="#FFF" d="M57.268 59.981h7.3v-5.25h-7.3z" mask="url(#b)"/>
        <path fill="#000" d="M64.502 59.915l-.545-2.811c-.156-.842-.283-1.61-.336-2.372l.947.946c-.608.046-1.217.059-1.825.054-.609-.005-1.217-.053-1.825-.084-.609-.041-1.217-.079-1.825-.136-.608-.067-1.217-.173-1.825-.27l.51-.51c-.147.875-.242 1.75-.228 2.625 0 .875.166 1.75.334 2.624l-.616-.616c.573-.115 1.118-.201 1.668-.204.55-.006 1.11.047 1.686.107.578.064 1.175.152 1.815.263.639.108 1.313.232 2.065.384m.132.132c-.465.152-1.007.277-1.585.384-.576.112-1.197.2-1.836.264-.64.06-1.297.112-1.963.107a11.578 11.578 0 0 1-1.982-.205l-.71-.128.094-.488c.168-.874.335-1.75.334-2.624.014-.875-.081-1.75-.228-2.625l-.07-.419.58-.092c.608-.096 1.217-.202 1.825-.269.608-.057 1.216-.095 1.825-.136.608-.031 1.216-.08 1.825-.084.608-.005 1.216.008 1.825.054l.993.073-.047.873c-.052.987-.179 1.969-.335 2.878-.078.454-.168.888-.258 1.299-.097.405-.184.796-.287 1.138" mask="url(#b)"/>
        <path fill="#FFF" d="M68.841 59.981h7.3v-5.25h-7.3z" mask="url(#b)"/>
        <path fill="#000" d="M76.075 59.915l-.545-2.811c-.156-.842-.282-1.61-.335-2.372l.947.946c-.61.046-1.217.059-1.826.054-.608-.005-1.216-.053-1.825-.084-.608-.041-1.216-.079-1.824-.136-.609-.067-1.217-.173-1.826-.27l.51-.51c-.146.875-.242 1.75-.228 2.625 0 .875.166 1.75.334 2.624l-.616-.616c.573-.115 1.119-.201 1.67-.204.55-.006 1.109.047 1.685.107.577.064 1.174.152 1.815.263.638.108 1.312.232 2.064.384m.132.132c-.464.152-1.007.277-1.585.384-.576.112-1.196.2-1.835.264-.64.06-1.298.112-1.964.107a11.573 11.573 0 0 1-1.982-.205l-.709-.128.094-.488c.168-.874.334-1.75.333-2.624.015-.875-.081-1.75-.228-2.625l-.07-.419.58-.092c.609-.096 1.217-.202 1.826-.269.608-.057 1.216-.095 1.824-.136.609-.031 1.217-.08 1.825-.084.609-.005 1.217.008 1.826.054l.992.073-.046.873a24.836 24.836 0 0 1-.336 2.878c-.078.454-.168.888-.258 1.299-.096.405-.183.796-.287 1.138" mask="url(#b)"/>
        <path fill="#FFF" d="M34.121 70.433h7.3v-5.25h-7.3z" mask="url(#b)"/>
        <path fill="#000" d="M41.355 70.367l-.545-2.811c-.157-.842-.283-1.61-.336-2.372l.947.946c-.609.045-1.217.059-1.825.054-.608-.005-1.217-.053-1.825-.085-.609-.04-1.217-.078-1.825-.136-.608-.066-1.217-.172-1.825-.269l.51-.51c-.147.875-.242 1.75-.228 2.625-.001.874.165 1.75.334 2.624l-.616-.615c.572-.116 1.118-.202 1.669-.206.55-.005 1.109.048 1.686.108.577.064 1.174.152 1.814.263.639.108 1.313.232 2.065.384m.132.132c-.465.152-1.007.276-1.585.384-.577.112-1.196.199-1.836.263-.64.06-1.297.113-1.964.108a11.573 11.573 0 0 1-1.981-.205l-.71-.128.094-.488c.169-.875.334-1.75.334-2.624.014-.875-.082-1.75-.228-2.625l-.07-.419.58-.092c.608-.096 1.216-.203 1.825-.269.608-.058 1.216-.095 1.825-.136.608-.032 1.217-.08 1.825-.085.608-.004 1.216.01 1.825.054l.992.074-.046.873a24.836 24.836 0 0 1-.335 2.878 29.15 29.15 0 0 1-.258 1.299c-.097.405-.184.796-.287 1.138" mask="url(#b)"/>
        <path fill="#FFF" d="M45.694 70.433h7.3v-5.25h-7.3z" mask="url(#b)"/>
        <path fill="#000" d="M52.928 70.367l-.544-2.811c-.157-.842-.284-1.61-.336-2.372l.946.946c-.608.045-1.216.059-1.825.054-.608-.005-1.216-.053-1.824-.085-.61-.04-1.217-.078-1.826-.136-.608-.066-1.216-.172-1.824-.269l.51-.51c-.147.875-.243 1.75-.229 2.625 0 .874.166 1.75.334 2.624l-.615-.615c.572-.116 1.117-.202 1.668-.206.55-.005 1.11.048 1.686.108.578.064 1.174.152 1.815.263.638.108 1.312.232 2.064.384m.132.132c-.464.152-1.007.276-1.585.384-.576.112-1.196.199-1.835.263-.64.06-1.298.113-1.964.108a11.568 11.568 0 0 1-1.981-.205l-.71-.128.094-.488c.168-.875.334-1.75.334-2.624.014-.875-.082-1.75-.229-2.625l-.07-.419.58-.092c.609-.096 1.217-.203 1.825-.269.609-.058 1.217-.095 1.826-.136.608-.032 1.216-.08 1.824-.085.609-.004 1.217.01 1.825.054l.993.074-.046.873a24.836 24.836 0 0 1-.336 2.878 29.15 29.15 0 0 1-.258 1.299c-.096.405-.183.796-.287 1.138" mask="url(#b)"/>
        <path fill="#FFF" d="M57.268 70.433h7.3v-5.25h-7.3z" mask="url(#b)"/>
        <path fill="#000" d="M64.502 70.367l-.545-2.811c-.156-.842-.283-1.61-.336-2.372l.947.946c-.608.045-1.217.059-1.825.054-.609-.005-1.217-.053-1.825-.085-.609-.04-1.217-.078-1.825-.136-.608-.066-1.217-.172-1.825-.269l.51-.51c-.147.875-.242 1.75-.228 2.625 0 .874.166 1.75.334 2.624l-.616-.615c.573-.116 1.118-.202 1.668-.206.55-.005 1.11.048 1.686.108.578.064 1.175.152 1.815.263.639.108 1.313.232 2.065.384m.132.132c-.465.152-1.007.276-1.585.384-.576.112-1.197.199-1.836.263-.64.06-1.297.113-1.963.108a11.578 11.578 0 0 1-1.982-.205l-.71-.128.094-.488c.168-.875.335-1.75.334-2.624.014-.875-.081-1.75-.228-2.625l-.07-.419.58-.092c.608-.096 1.217-.203 1.825-.269.608-.058 1.216-.095 1.825-.136.608-.032 1.216-.08 1.825-.085.608-.004 1.216.01 1.825.054l.993.074-.047.873c-.052.987-.179 1.969-.335 2.878a29.15 29.15 0 0 1-.258 1.299c-.097.405-.184.796-.287 1.138" mask="url(#b)"/>
        <path fill="#FFF" d="M68.841 70.433h7.3v-5.25h-7.3z" mask="url(#b)"/>
        <path fill="#000" d="M76.075 70.367l-.545-2.811c-.156-.842-.282-1.61-.335-2.372l.947.946c-.61.045-1.217.059-1.826.054-.608-.005-1.216-.053-1.825-.085-.608-.04-1.216-.078-1.824-.136-.609-.066-1.217-.172-1.826-.269l.51-.51c-.146.875-.242 1.75-.228 2.625 0 .874.166 1.75.334 2.624l-.616-.615c.573-.116 1.119-.202 1.67-.206.55-.005 1.109.048 1.685.108.577.064 1.174.152 1.815.263.638.108 1.312.232 2.064.384m.132.132c-.464.152-1.007.276-1.585.384-.576.112-1.196.199-1.835.263-.64.06-1.298.113-1.964.108a11.573 11.573 0 0 1-1.982-.205l-.709-.128.094-.488c.168-.875.334-1.75.333-2.624.015-.875-.081-1.75-.228-2.625l-.07-.419.58-.092c.609-.096 1.217-.203 1.826-.269.608-.058 1.216-.095 1.824-.136.609-.032 1.217-.08 1.825-.085.609-.004 1.217.01 1.826.054l.992.074-.046.873a24.836 24.836 0 0 1-.336 2.878 28.5 28.5 0 0 1-.258 1.299c-.096.405-.183.796-.287 1.138" mask="url(#b)"/>
        <path fill="#FF5331" d="M78.986 60.21a5.48 5.48 0 0 1-1.253 2.125 6 6 0 0 1-2.104 1.397c-1.595.635-3.437.545-4.987-.122a7.986 7.986 0 0 1-2.112-1.35 11.065 11.065 0 0 1-1.627-1.857 10.238 10.238 0 0 1-1.126-2.179c-.281-.77-.486-1.581-.521-2.417-.047-.832.034-1.687.298-2.5a6.105 6.105 0 0 1 1.277-2.223 6.222 6.222 0 0 1 2.097-1.517 6.462 6.462 0 0 1 2.53-.543c1.736-.019 3.422.62 4.741 1.66 1.326 1.035 2.32 2.464 2.774 4.03l-.086.035c-.734-1.428-1.812-2.64-3.115-3.467-1.29-.835-2.799-1.323-4.295-1.264-1.485.033-2.96.59-4.007 1.667-1.036 1.072-1.633 2.561-1.704 4.116-.08 1.56.448 3.153 1.383 4.426a7.828 7.828 0 0 0 3.772 2.66 8.432 8.432 0 0 0 2.228.448 6.407 6.407 0 0 0 2.24-.284 6.148 6.148 0 0 0 3.512-2.879l.085.037z" mask="url(#b)"/>
    </g>
</svg>
